HIERARCHY
ROOT Hips
{
  OFFSET -125.086 92.215 135.881
  CHANNELS 6 Xposition Yposition Zposition Zrotation Xrotation Yrotation
  JOINT LeftUpLeg
  {
    OFFSET 8.64259 1.95398 -2.38835
    CHANNELS 3 Zrotation Xrotation Yrotation
    JOINT LeftLeg
    {
      OFFSET 43.7702 0 0
      CHANNELS 3 Zrotation Xrotation Yrotation
      JOINT LeftFoot
      {
        OFFSET 40.6238 0 0
        CHANNELS 3 Zrotation Xrotation Yrotation
        JOINT LeftToeBase
        {
          OFFSET 12.7242 0 0
          CHANNELS 3 Zrotation Xrotation Yrotation
          End Site
          {
            OFFSET 0 0 0
          }
        }
      }
    }
  }
  JOINT RightUpLeg
  {
    OFFSET -8.2249 1.95398 -2.59336
    CHANNELS 3 Zrotation Xrotation Yrotation
    JOINT RightLeg
    {
      OFFSET 43.5653 0 0
      CHANNELS 3 Zrotation Xrotation Yrotation
      JOINT RightFoot
      {
        OFFSET 40.6238 0 0
        CHANNELS 3 Zrotation Xrotation Yrotation
        JOINT RightToeBase
        {
          OFFSET 12.7242 0 0
          CHANNELS 3 Zrotation Xrotation Yrotation
          End Site
          {
            OFFSET 0 0 0
          }
        }
      }
    }
  }
  JOINT Spine
  {
    OFFSET 0.165834 0.87714 6.61349
    CHANNELS 3 Zrotation Xrotation Yrotation
    JOINT Spine1
    {
      OFFSET 7.38963 1.71661e-005 0
      CHANNELS 3 Zrotation Xrotation Yrotation
      JOINT Spine2
      {
        OFFSET 11.9445 1.14441e-005 0
        CHANNELS 3 Zrotation Xrotation Yrotation
        JOINT Spine3
        {
          OFFSET 14.7254 4.19617e-005 0
          CHANNELS 3 Zrotation Xrotation Yrotation
          JOINT Spine4
          {
            OFFSET 10.9679 0 0
            CHANNELS 3 Zrotation Xrotation Yrotation
            JOINT RightShoulder
            {
              OFFSET 2.46616 -1.6653 3.69651
              CHANNELS 3 Zrotation Xrotation Yrotation
              JOINT RightArm
              {
                OFFSET 13.0012 0 0
                CHANNELS 3 Zrotation Xrotation Yrotation
                JOINT RightForeArm
                {
                  OFFSET 28.7848 1.52588e-005 0
                  CHANNELS 3 Zrotation Xrotation Yrotation
                  JOINT RightHand
                  {
                    OFFSET 26.5688 1.52588e-005 0
                    CHANNELS 3 Zrotation Xrotation Yrotation
                    End Site
                    {
                      OFFSET 0 0 0
                    }
                  }
                }
              }
            }
            JOINT LeftShoulder
            {
              OFFSET 2.38034 -1.29275 -3.7523
              CHANNELS 3 Zrotation Xrotation Yrotation
              JOINT LeftArm
              {
                OFFSET 16.3182 6.10352e-005 0
                CHANNELS 3 Zrotation Xrotation Yrotation
                JOINT LeftForeArm
                {
                  OFFSET 27.0901 0 0
                  CHANNELS 3 Zrotation Xrotation Yrotation
                  JOINT LeftHand
                  {
                    OFFSET 24.5451 1.52588e-005 0
                    CHANNELS 3 Zrotation Xrotation Yrotation
                    End Site
                    {
                      OFFSET 0 0 0
                    }
                  }
                }
              }
            }
            JOINT Neck
            {
              OFFSET 5.0226 -0.0266342 0
              CHANNELS 3 Zrotation Xrotation Yrotation
              JOINT Head
              {
                OFFSET 6.69363 2.86102e-005 0
                CHANNELS 3 Zrotation Xrotation Yrotation
                End Site
                {
                  OFFSET 0 0 0
                }
              }
            }
          }
        }
      }
    }
  }
}
MOTION
Frames:	16
Frame Time:	0.0416667
138.874 97.1021 -137.348 107.795 46.4306 79.6942 -175.547 9.66461 89.8408 -17.6758 18.566 2.28659 49.1392 -4.39227 13.7301 32.6169 -0.33676 0.096227 173.334 -14.883 87.9157 -28.6648 -13.9603 -1.87879 59.1516 -1.15648 9.59176 63.9944 -5.87228 -1.60583 0.549234 7.73737 -90.1172 11.401 1.03816 -0.3382 -0.269571 1.02228 -0.383577 -22.808 1.09182 -0.0105237 -2.7954 1.09183 -0.0105221 110.782 -52.3683 -69.1392 27.9719 -4.97943 -12.6786 0.599418 -14.1077 -23.5915 -14.5632 -0.356367 -2.40117 -70.0799 -50.11 108.644 -36.1646 -22.1791 -14.0798 9.42748 65.1168 0.0305342 -15.2641 -0.11288 -4.17196 -16.0087 -0.105201 -4.75122 -31.2118 -1.30676 4.86314 
140.076 95.322 -139.116 106.88 46.8183 78.8787 -176.448 14.8419 88.0064 -29.2001 14.556 2.14691 54.2094 -0.591843 13.5144 38.0523 -0.755077 -1.01426 172.533 0.708868 85.4138 -54.873 -10.3516 -2.049 47.468 4.06223 17.9407 62.0978 -4.45481 3.62408 0.558092 7.7407 -89.7833 11.3919 1.21175 0.311255 -0.2785 1.22425 0.257623 -22.8171 1.06217 0.661089 -2.8045 1.06214 0.661078 111.492 -52.3534 -68.0688 31.6958 1.24179 -10.7394 -0.756897 -20.9002 -15.4969 -11.1966 -0.526835 0.243134 -72.4187 -48.8718 105.226 -38.241 -15.7359 -17.8219 7.39002 65.7226 0.12243 -6.60528 0.129482 -9.62049 -15.696 -0.107669 -5.15958 -32.1896 -1.59012 5.82839 
143.86 95.922 -144.276 108.067 46.7977 77.2417 -175.05 10.1012 87.6727 -30.4844 15.0615 1.3779 59.4766 2.44874 14.0965 37.7515 -0.759413 -0.191455 171.853 12.7323 84.6152 -65.9253 -9.21088 -2.01802 45.266 4.19473 14.1582 56.4273 -4.62995 -2.04647 0.323673 7.9669 -89.6259 10.9379 0.817352 0.663226 -0.732941 0.84575 0.626604 -23.2678 0.580241 0.878205 -3.25513 0.580244 0.878201 111.357 -52.4113 -68.2811 33.3289 3.42038 -9.99778 0.206811 -23.9783 -9.1401 -10.1557 -0.482375 0.38085 -72.3879 -48.9751 105.262 -36.7164 -8.74499 -22.9786 2.89232 57.9936 -0.854726 -3.95903 0.00891408 -11.0824 -14.4909 0.967594 -4.70986 -31.4193 -1.23913 9.16288 
147.608 96.8355 -148.567 108.424 50.316 78.2044 -175.095 6.88719 88.8812 -30.5437 16.9388 2.92542 61.9399 4.40004 13.6128 38.328 -0.825786 0.323611 170.931 18.3508 86.9317 -58.4114 -7.08871 0.299642 49.3859 2.82258 14.9806 52.7451 -4.13617 -3.42133 -0.0786284 8.05742 -89.822 10.7593 -0.0742847 0.36128 -0.911746 -0.0583312 0.364201 -23.4465 -0.17942 0.322257 -3.43391 -0.179444 0.322243 111.24 -52.5676 -68.4841 33.7719 5.15089 -8.20426 -0.200562 -25.693 -7.79021 -8.9981 -0.440935 0.546149 -73.4078 -47.3248 103.827 -38.115 -3.66576 -28.8975 9.45046 53.9388 -10.7147 -1.65894 -0.132179 -11.0895 -15.2653 0.989211 -4.22556 -31.7339 -1.24482 9.01641 
151.362 97.4259 -152.47 107.53 53.5083 78.5999 -174.845 3.81791 89.4456 -28.7727 18.5446 3.45062 63.412 5.78549 13.0218 40.0742 -0.966078 0.151083 171.82 18.2664 87.8238 -35.3417 -7.39869 2.05157 52.2412 1.95433 13.9415 53.6957 -4.36193 -3.84064 -0.375535 8.03064 -89.8496 10.8137 -0.678278 0.362344 -0.857089 -0.661655 0.391836 -23.3936 -0.755826 0.141736 -3.38091 -0.755826 0.141733 111.855 -52.8249 -67.6074 33.9501 5.62478 -6.97179 -0.39082 -25.5797 -7.63231 -9.32427 -0.43344 0.239594 -74.0793 -45.8648 102.878 -36.683 0.598652 -32.7667 12.0357 45.9183 -19.0024 1.31459 -0.311398 -11.2248 -14.8661 0.822831 -4.64093 -32.6999 -1.28186 8.26494 
155.419 97.9789 -156.567 107.639 55.7508 76.7729 -174.614 -0.796148 88.4118 -25.0316 21.6636 3.59359 62.4096 6.1902 13.4171 45.1024 -1.3307 2.34289 175.675 14.0133 86.8582 -13.7564 -2.32754 -0.109393 51.6567 2.45494 18.519 49.1777 -3.51848 -3.97295 -0.468496 7.9598 -89.8033 10.956 -0.841562 0.47116 -0.714789 -0.820032 0.507737 -23.252 -0.944279 0.196428 -3.2393 -0.944259 0.196434 111.629 -52.5448 -67.8971 34.735 6.00034 -5.47319 -0.904939 -22.9577 -9.07794 -8.668 -0.441502 0.786761 -74.3323 -45.5595 102.493 -35.1451 2.549 -34.5787 14.9376 44.3833 -25.5707 1.53358 -0.343385 -11.7845 -15.8315 0.363357 -3.809 -32.228 -1.47827 7.20187 
159.679 97.4789 -160.97 109.481 56.7018 73.829 -175.759 -4.53532 88.0342 -28.2385 21.9232 5.00452 63.3237 7.39705 13.6483 49.9278 -1.3872 5.63697 175.263 12.4703 86.24 -14.0641 -9.26146 -0.355307 47.3068 4.05447 12.3263 41.3193 -1.95614 -4.9083 -0.424505 7.86013 -89.8866 11.1542 -0.792144 0.302825 -0.516555 -0.778064 0.337404 -23.0536 -0.846543 0.050739 -3.04093 -0.846534 0.0507392 111.764 -52.7579 -67.7311 33.7808 5.94337 -6.28768 -0.549402 -23.9503 -8.39092 -8.82213 -0.467779 1.02639 -73.2368 -46.8157 104.142 -34.5212 2.60619 -33.6078 15.9526 46.1635 -27.2671 0.71899 -0.266567 -10.8114 -16.8067 0.149434 -3.23921 -32.5408 -1.90736 7.80554 
163.55 97.077 -164.59 109.938 58.8187 73.7658 -178.119 -0.20679 90.0608 -40.3784 18.0257 6.14507 60.6723 5.95406 7.6532 58.2901 -1.32175 8.30417 175.261 14.6836 86.8087 -24.4001 -7.13812 -0.156785 49.3123 4.86559 12.1191 34.475 -0.735654 -3.49688 -0.390256 7.77558 -90.2657 11.323 -0.900363 -0.438454 -0.347634 -0.918792 -0.398404 -22.8841 -0.726969 -0.688787 -2.8715 -0.726964 -0.688786 111.56 -52.2916 -67.9558 32.6065 4.37851 -8.29686 -0.733249 -22.6032 -10.8111 -9.04744 -0.466668 0.861554 -72.9142 -48.0668 104.535 -38.1357 -0.0129196 -30.3668 13.609 51.0126 -19.5437 0.905589 -0.283832 -11.1442 -16.1218 -0.654546 -2.46331 -32.3532 -2.45752 6.89031 
166.972 96.7684 -167.207 110.766 61.6437 73.4492 -179.665 9.85633 90.8162 -57.0316 15.7725 6.3539 54.6317 2.19756 2.19836 57.1408 -1.1464 9.52849 174.392 14.139 87.6171 -29.3247 -7.85704 1.12661 56.3029 2.58899 8.39856 33.7483 -0.515424 -4.79637 -0.363692 7.73936 -90.4249 11.3917 -0.921854 -0.753386 -0.279119 -0.954115 -0.71209 -22.814 -0.652839 -0.995602 -2.80137 -0.652827 -0.995604 111.856 -52.9349 -67.6245 30.642 1.63826 -9.61503 -1.27056 -21.3461 -15.8568 -8.93216 -0.383279 -0.197252 -74.1182 -46.628 102.762 -42.2562 -4.00988 -26.6468 8.03443 57.4199 -7.42443 -3.16955 -0.0469744 -10.6252 -14.3166 -1.49687 -6.03143 -33.1541 -3.44896 7.58036 
169.545 97.156 -169.489 111.197 61.1342 72.6995 -179.045 14.5487 90.5445 -58.0968 13.3711 5.25614 56.2538 4.0796 6.8237 56.0381 -0.996806 10.7071 174.303 12.0707 87.8665 -30.372 -8.31368 1.03032 58.6205 1.8449 8.08178 33.8383 -0.554515 -4.60863 -0.185711 7.88666 -90.4257 11.0983 -0.567245 -0.792907 -0.572731 -0.601589 -0.767185 -23.1064 -0.302735 -0.92672 -3.09371 -0.302733 -0.926726 111.652 -52.2748 -67.8156 30.4403 -0.178422 -13.1546 -0.832456 -18.758 -18.0091 -10.6497 -0.465041 -0.0992716 -74.1831 -47.1254 102.626 -44.1366 -9.37298 -25.4718 6.29011 65.6755 0.706969 -2.9322 -0.0498927 -9.49376 -13.4991 -1.85382 -7.00635 -33.1255 -3.71556 7.4348 
171.382 97.8409 -171.611 107.995 59.8234 74.6593 -178.529 14.5576 89.3673 -42.9595 12.4983 3.96227 58.2267 5.07004 5.42297 57.4292 -0.796331 12.1707 174.583 10.9034 87.548 -29.0109 -8.34884 0.355314 59.1102 1.65232 9.8026 34.8177 -0.723408 -5.311 -0.0645385 7.82369 -90.2862 11.2255 -0.261527 -0.543547 -0.445555 -0.285172 -0.531518 -22.9798 -0.086076 -0.597003 -2.96714 -0.0860634 -0.597012 111.791 -52.1091 -67.5766 30.1671 -1.67459 -14.4911 -0.992031 -16.8585 -21.2336 -11.1181 -0.459613 -0.389844 -73.5675 -47.9393 103.528 -45.117 -16.2403 -24.1814 12.648 73.1764 0.0656029 -4.30064 0.0516183 -7.73306 -14.4314 -2.31391 -5.70579 -30.1921 -3.24959 4.15821 
172.835 98.6669 -173.981 106.538 58.8868 76.1523 -179.048 9.20646 88.7823 -21.5008 15.3186 3.27047 57.4565 4.53697 4.45914 55.5437 -0.784709 13.6724 174.492 7.85769 87.6656 -25.6704 -8.5025 0.200547 59.5728 1.09755 10.0125 33.692 -0.556216 -3.83048 -0.0718357 7.82802 -90.2678 11.2167 -0.267417 -0.50707 -0.454305 -0.289469 -0.494811 -22.9887 -0.102675 -0.563994 -2.97606 -0.102661 -0.563995 112.012 -52.3518 -67.2878 29.1479 -3.22968 -14.1342 -1.8508 -17.713 -24.5855 -11.066 -0.44556 -0.518297 -73.5671 -48.2547 103.505 -43.9932 -18.7938 -21.4921 13.9665 71.0738 0.0675725 -11.0852 0.488273 -12.0856 -12.9898 -2.88053 -5.3879 -30.5402 -3.32997 2.33296 
174.089 99.0837 -176.537 105.022 58.5709 79.1294 -178.794 7.15592 88.9251 -15.6064 23.5782 4.54939 52.9288 0.850355 7.79694 35.2577 -0.659197 1.78593 175.2 4.93067 89.2753 -22.4851 -7.09354 -0.027404 59.9921 0.885549 11.7586 33.1791 -0.402087 -4.79779 -0.219949 7.70444 -90.4056 11.4624 -0.627154 -0.744242 -0.208579 -0.659313 -0.715915 -22.7426 -0.374498 -0.898303 -2.7299 -0.374501 -0.898301 112.169 -52.6592 -67.1083 28.3636 -3.13696 -13.4409 -2.22313 -19.7689 -24.1098 -10.9749 -0.466287 -0.25061 -73.1476 -48.1687 104.163 -43.8459 -18.3703 -20.0397 12.9057 70.2336 0.0572415 -11.1838 0.456044 -11.455 -13.2552 -4.59581 -4.44751 -28.4532 -4.19249 -1.62751 
174.811 99.0872 -178.787 103.308 56.4007 81.4618 -177.733 6.43743 89.4301 -16.2646 22.331 4.44197 53.1156 0.776016 10.3209 37.4428 -0.856968 2.81996 175.799 4.73149 89.8823 -23.4824 -7.39903 -0.574897 60.2029 0.401134 12.3206 35.5678 -0.914324 -3.70714 -0.2824 7.67288 -90.2512 11.5274 -0.679276 -0.431043 -0.143456 -0.697596 -0.400731 -22.679 -0.518328 -0.615266 -2.66637 -0.518331 -0.615273 113.542 -54.1637 -65.3631 28.8977 -0.707243 -15.6245 -0.522191 -22.9208 -16.2875 -10.907 -0.517699 0.366024 -73.4414 -47.9246 103.727 -42.3521 -14.7345 -20.7228 9.07706 65.0024 0.233576 -7.63966 0.203559 -10.4129 -14.1846 -10.2041 -0.71028 -23.6787 -7.48711 -16.4294 
174.85 98.7975 -180.213 102.802 53.8655 81.2885 -176.367 6.06272 89.0022 -17.3998 21.417 3.18736 54.7913 1.18127 11.3289 37.9875 -0.809552 0.710126 176.198 7.09119 89.1449 -28.6536 -7.50057 -1.54348 59.6068 -0.00443822 12.9467 40.598 -1.84942 -2.15579 -0.708685 7.90057 -89.8839 11.0759 -1.35674 0.365015 -0.59443 -1.33934 0.424375 -23.1353 -1.4037 -0.0596923 -3.12259 -1.4037 -0.0596943 112.405 -53.3096 -66.8762 32.5556 0.976018 -19.5315 1.84073 -29.922 -6.56928 -10.5687 -0.635876 1.85957 -75.3518 -45.5252 100.859 -41.7035 -10.0199 -18.7985 6.59525 57.4227 -2.57467 -0.527454 -0.178646 -9.11625 -18.6722 -22.2301 4.9615 -22.3991 -16.2338 -39.6755 
174.335 98.0197 -181.26 100.906 50.119 83.3995 -175.483 8.30443 89.0333 -22.0086 19.434 2.33362 58.0074 2.4321 13.208 37.8723 -0.778636 0.0468653 177.177 13.3767 88.8905 -37.7419 -8.26345 -2.06808 56.8888 0.523295 15.0262 45.7751 -2.88175 -4.15624 -1.31115 8.22281 -89.6813 10.4387 -2.46566 0.850016 -1.23025 -2.42585 0.95776 -23.7841 -2.60707 0.0692095 -3.77142 -2.60707 0.0692047 111.077 -52.6795 -68.7463 33.2938 -2.46923 -24.1002 5.23835 -30.9507 -2.87324 -12.7717 -0.641485 0.708927 -77.9425 -40.9818 96.6835 -42.7673 -7.01308 -16.5235 11.9726 47.6254 -13.3194 1.18675 -0.271055 -10.1344 -19.5381 -32.6108 6.29863 -29.8945 -19.9857 -57.0154 
